<svg width="121" height="25" viewBox="0 0 121 25" fill="none" xmlns="http://www.w3.org/2000/svg">
<path d="M0.535511 0.0909085H5.01349L9.32528 8.23438H9.50994L13.8217 0.0909085H18.2997L11.4027 12.3153V19H7.43253V12.3153L0.535511 0.0909085ZM23.8464 19.277C22.4122 19.277 21.1719 18.9723 20.1255 18.3629C19.0853 17.7474 18.282 16.8918 17.7157 15.7962C17.1494 14.6944 16.8663 13.4171 16.8663 11.9645C16.8663 10.4995 17.1494 9.21922 17.7157 8.12358C18.282 7.02178 19.0853 6.16619 20.1255 5.55682C21.1719 4.94129 22.4122 4.63352 23.8464 4.63352C25.2806 4.63352 26.5178 4.94129 27.5581 5.55682C28.6045 6.16619 29.4108 7.02178 29.9771 8.12358C30.5434 9.21922 30.8265 10.4995 30.8265 11.9645C30.8265 13.4171 30.5434 14.6944 29.9771 15.7962C29.4108 16.8918 28.6045 17.7474 27.5581 18.3629C26.5178 18.9723 25.2806 19.277 23.8464 19.277ZM23.8649 16.2301C24.5173 16.2301 25.0621 16.0455 25.4991 15.6761C25.9361 15.3007 26.2654 14.7898 26.487 14.1435C26.7148 13.4972 26.8287 12.7616 26.8287 11.9368C26.8287 11.112 26.7148 10.3764 26.487 9.73011C26.2654 9.08381 25.9361 8.57292 25.4991 8.19744C25.0621 7.82197 24.5173 7.63423 23.8649 7.63423C23.2063 7.63423 22.6523 7.82197 22.2029 8.19744C21.7598 8.57292 21.4243 9.08381 21.1966 9.73011C20.975 10.3764 20.8642 11.112 20.8642 11.9368C20.8642 12.7616 20.975 13.4972 21.1966 14.1435C21.4243 14.7898 21.7598 15.3007 22.2029 15.6761C22.6523 16.0455 23.2063 16.2301 23.8649 16.2301ZM42.4785 12.9616V4.81818H46.4118V19H42.6355V16.424H42.4877C42.1677 17.255 41.6352 17.9228 40.8904 18.4276C40.1518 18.9323 39.2501 19.1847 38.1852 19.1847C37.2373 19.1847 36.4032 18.9692 35.6831 18.5384C34.9629 18.1075 34.3997 17.495 33.9934 16.701C33.5933 15.907 33.3902 14.956 33.3841 13.848V4.81818H37.3173V13.1463C37.3234 13.9834 37.5481 14.6451 37.9913 15.1314C38.4345 15.6177 39.0285 15.8608 39.7733 15.8608C40.2472 15.8608 40.6904 15.7531 41.1028 15.5376C41.5152 15.3161 41.8476 14.9898 42.1 14.5589C42.3585 14.1281 42.4847 13.5956 42.4785 12.9616ZM49.5579 19V4.81818H53.3711V7.29261H53.5188C53.7773 6.4124 54.2113 5.74763 54.8207 5.2983C55.43 4.8428 56.1317 4.61506 56.9258 4.61506C57.1228 4.61506 57.3351 4.62737 57.5629 4.65199C57.7906 4.67661 57.9906 4.71046 58.163 4.75355V8.24361C57.9783 8.18821 57.7229 8.13897 57.3967 8.09588C57.0704 8.05279 56.7719 8.03125 56.5011 8.03125C55.9225 8.03125 55.4054 8.15743 54.9499 8.4098C54.5006 8.65601 54.1436 9.00071 53.8789 9.44389C53.6204 9.88707 53.4911 10.398 53.4911 10.9766V19H49.5579ZM60.2704 19V0.0909085H64.2683V15.7038H72.3748V19H60.2704ZM81.3562 19.277C79.922 19.277 78.6817 18.9723 77.6353 18.3629C76.5951 17.7474 75.7918 16.8918 75.2255 15.7962C74.6592 14.6944 74.3761 13.4171 74.3761 11.9645C74.3761 10.4995 74.6592 9.21922 75.2255 8.12358C75.7918 7.02178 76.5951 6.16619 77.6353 5.55682C78.6817 4.94129 79.922 4.63352 81.3562 4.63352C82.7904 4.63352 84.0276 4.94129 85.0678 5.55682C86.1142 6.16619 86.9206 7.02178 87.4869 8.12358C88.0531 9.21922 88.3363 10.4995 88.3363 11.9645C88.3363 13.4171 88.0531 14.6944 87.4869 15.7962C86.9206 16.8918 86.1142 17.7474 85.0678 18.3629C84.0276 18.9723 82.7904 19.277 81.3562 19.277ZM81.3746 16.2301C82.0271 16.2301 82.5719 16.0455 83.0089 15.6761C83.4459 15.3007 83.7752 14.7898 83.9968 14.1435C84.2246 13.4972 84.3384 12.7616 84.3384 11.9368C84.3384 11.112 84.2246 10.3764 83.9968 9.73011C83.7752 9.08381 83.4459 8.57292 83.0089 8.19744C82.5719 7.82197 82.0271 7.63423 81.3746 7.63423C80.716 7.63423 80.1621 7.82197 79.7127 8.19744C79.2695 8.57292 78.9341 9.08381 78.7063 9.73011C78.4847 10.3764 78.3739 11.112 78.3739 11.9368C78.3739 12.7616 78.4847 13.4972 78.7063 14.1435C78.9341 14.7898 79.2695 15.3007 79.7127 15.6761C80.1621 16.0455 80.716 16.2301 81.3746 16.2301ZM97.283 24.6136C96.0089 24.6136 94.9163 24.4382 94.0053 24.0874C93.1005 23.7427 92.3803 23.2718 91.8448 22.6747C91.3093 22.0777 90.9615 21.4067 90.8015 20.6619L94.4393 20.1726C94.5501 20.4557 94.7255 20.7204 94.9656 20.9666C95.2056 21.2128 95.5226 21.4098 95.9165 21.5575C96.3166 21.7114 96.8029 21.7884 97.3754 21.7884C98.2309 21.7884 98.9357 21.5791 99.4897 21.1605C100.05 20.7481 100.33 20.0556 100.33 19.0831V16.4886H100.164C99.9914 16.8826 99.7328 17.255 99.3881 17.6058C99.0434 17.9567 98.6003 18.2429 98.0586 18.4645C97.5169 18.6861 96.8706 18.7969 96.1197 18.7969C95.0548 18.7969 94.0853 18.5507 93.2113 18.0582C92.3434 17.5597 91.6509 16.7995 91.1339 15.7777C90.623 14.7498 90.3675 13.451 90.3675 11.8814C90.3675 10.2749 90.6291 8.933 91.1523 7.85582C91.6755 6.77865 92.3711 5.9723 93.239 5.43679C94.113 4.90128 95.0702 4.63352 96.1104 4.63352C96.9045 4.63352 97.5692 4.76894 98.1048 5.03977C98.6403 5.30445 99.0711 5.63684 99.3974 6.03693C99.7298 6.43087 99.9852 6.81865 100.164 7.20028H100.311V4.81818H104.217V19.1385C104.217 20.3449 103.922 21.3544 103.331 22.1669C102.74 22.9794 101.921 23.5888 100.875 23.995C99.8344 24.4074 98.6372 24.6136 97.283 24.6136ZM97.3661 15.8423C98.0001 15.8423 98.5356 15.6854 98.9727 15.3714C99.4158 15.0514 99.7544 14.5959 99.9883 14.005C100.228 13.4079 100.348 12.6939 100.348 11.8629C100.348 11.032 100.231 10.3118 99.9975 9.70241C99.7636 9.08688 99.4251 8.60985 98.9819 8.27131C98.5387 7.93276 98.0001 7.76349 97.3661 7.76349C96.7198 7.76349 96.1751 7.93892 95.7319 8.28977C95.2887 8.63447 94.9532 9.11458 94.7255 9.73011C94.4978 10.3456 94.3839 11.0566 94.3839 11.8629C94.3839 12.6816 94.4978 13.3894 94.7255 13.9865C94.9594 14.5774 95.2949 15.036 95.7319 15.3622C96.1751 15.6823 96.7198 15.8423 97.3661 15.8423ZM113.755 19.277C112.32 19.277 111.08 18.9723 110.034 18.3629C108.993 17.7474 108.19 16.8918 107.624 15.7962C107.058 14.6944 106.775 13.4171 106.775 11.9645C106.775 10.4995 107.058 9.21922 107.624 8.12358C108.19 7.02178 108.993 6.16619 110.034 5.55682C111.08 4.94129 112.32 4.63352 113.755 4.63352C115.189 4.63352 116.426 4.94129 117.466 5.55682C118.513 6.16619 119.319 7.02178 119.885 8.12358C120.452 9.21922 120.735 10.4995 120.735 11.9645C120.735 13.4171 120.452 14.6944 119.885 15.7962C119.319 16.8918 118.513 17.7474 117.466 18.3629C116.426 18.9723 115.189 19.277 113.755 19.277ZM113.773 16.2301C114.426 16.2301 114.97 16.0455 115.407 15.6761C115.844 15.3007 116.174 14.7898 116.395 14.1435C116.623 13.4972 116.737 12.7616 116.737 11.9368C116.737 11.112 116.623 10.3764 116.395 9.73011C116.174 9.08381 115.844 8.57292 115.407 8.19744C114.97 7.82197 114.426 7.63423 113.773 7.63423C113.114 7.63423 112.56 7.82197 112.111 8.19744C111.668 8.57292 111.333 9.08381 111.105 9.73011C110.883 10.3764 110.772 11.112 110.772 11.9368C110.772 12.7616 110.883 13.4972 111.105 14.1435C111.333 14.7898 111.668 15.3007 112.111 15.6761C112.56 16.0455 113.114 16.2301 113.773 16.2301Z" fill="black"/>
</svg>
